<?xml version="1.0" encoding="utf-8"?>
<!-- Generator: Adobe Illustrator 26.0.2, SVG Export Plug-In . SVG Version: 6.00 Build 0)  -->
<svg version="1.1" id="name" xmlns="http://www.w3.org/2000/svg" xmlns:xlink="http://www.w3.org/1999/xlink" x="0px" y="0px"
	 viewBox="0 0 142.4 390" style="enable-background:new 0 0 142.4 390;" xml:space="preserve">
<style type="text/css">
	.st0{fill:#FFFFFF;}
</style>
<path id="パス_28" class="st0" d="M0,47.8c0,19,12.6,28.8,32.8,28.8h2.8c5.2,0,8.2-3.2,8.2-7.4s-3-7.4-8.2-7.4h-0.8
	c-14.4,0-20.4-4.4-20.4-13.6S20.6,34,35.4,34H107c15,0,21,4.6,21,14c0,9.2-6,13.8-21,13.8h-0.6c-5,0-7.8,3.4-7.8,7.4
	c-0.1,3.9,2.9,7.3,6.9,7.4c0.2,0,0.4,0,0.5,0h3.6c20.2,0,32.8-9.8,32.8-28.8c0-18.6-12.6-29-32.8-29H32.8C12.6,18.8,0,29.2,0,47.8z
	 M142.4,152.6c0-4.2-3.4-7.6-7.6-7.6h0h-51v-29.6h51c4.2,0,7.6-3.4,7.6-7.6c0,0,0,0,0,0c0-4.2-3.4-7.6-7.6-7.6l0,0H8.8
	c-4.2,0-7.6,3.4-7.6,7.6c0,4.2,3.4,7.6,7.6,7.6h61V145h-61c-4.2,0-7.6,3.4-7.6,7.6c0,4.2,3.4,7.6,7.6,7.6c0,0,0,0,0,0h126
	C139,160.2,142.4,156.8,142.4,152.6z M1.2,196.8c0,4.2,3.4,7.6,7.6,7.6c0,0,0,0,0,0h126c4.2,0,7.6-3.4,7.6-7.6v0
	c0-4.2-3.4-7.6-7.6-7.6h0H8.8C4.6,189.2,1.2,192.6,1.2,196.8C1.2,196.8,1.2,196.8,1.2,196.8z M0,261c0,19,12.6,28.8,32.8,28.8h2.8
	c5.2,0,8.2-3.2,8.2-7.4s-3-7.4-8.2-7.4h-0.8c-14.4,0-20.4-4.4-20.4-13.6c0-9.2,6.2-14.2,21-14.2H107c15,0,21,4.6,21,14
	c0,9.2-6,13.8-21,13.8h-0.6c-5,0-7.8,3.4-7.8,7.4c-0.1,3.9,2.9,7.3,6.9,7.4c0.2,0,0.4,0,0.5,0h3.6c20.2,0,32.8-9.8,32.8-28.8
	c0-18.6-12.6-29-32.8-29H32.8C12.6,232,0,242.4,0,261z M75.2,360c2.6,5.4,10.4,9.8,21.6,9.8h38c4.2,0,7.6-3.4,7.6-7.6l0,0
	c0-4.2-3.4-7.6-7.6-7.6h0H98.2c-9.8,0-14.6-4.6-14.6-14.2v-11.8h51.2c4.2,0,7.6-3.4,7.6-7.6l0,0c0-4.2-3.4-7.6-7.6-7.6h0H8.4
	c-4.2,0-7.6,3.4-7.6,7.6l0,0c0,4.2,3.4,7.6,7.6,7.6c0,0,0,0,0,0h60.4v10.8c0,9.8-8.8,16.6-20.2,16.6H8.4c-4.2,0-7.6,3.4-7.6,7.6l0,0
	c0,4.2,3.4,7.6,7.6,7.6c0,0,0,0,0,0h44.4C63.8,371.2,71.4,365.6,75.2,360z"/>
</svg>
