<?xml version="1.0" encoding="utf-8"?>
<!-- Generator: Adobe Illustrator 26.0.2, SVG Export Plug-In . SVG Version: 6.00 Build 0)  -->
<svg version="1.1" id="レイヤー_1" xmlns="http://www.w3.org/2000/svg" xmlns:xlink="http://www.w3.org/1999/xlink" x="0px"
	 y="0px" viewBox="0 0 250 85.4" style="enable-background:new 0 0 250 85.4;" xml:space="preserve">
<style type="text/css">
	.st0{fill:#FFFFFF;}
</style>
<g id="name" transform="translate(-27.56 -136.76)">
	<path id="パス_28" class="st0" d="M64.2,222.2c11.4,0,17.3-7.6,17.3-19.7v-1.7c0-3.1-1.9-4.9-4.4-4.9c-2.5,0-4.4,1.8-4.4,4.9v0.5
		c0,8.6-2.6,12.2-8.2,12.2c-5.5,0-8.5-3.7-8.5-12.6v-43c0-9,2.8-12.6,8.4-12.6c5.5,0,8.3,3.6,8.3,12.6v0.4c-0.2,2.4,1.6,4.5,4,4.7
		c0.1,0,0.3,0,0.4,0c2.4,0.1,4.4-1.8,4.4-4.1c0-0.1,0-0.2,0-0.3v-2.2c0-12.1-5.9-19.7-17.3-19.7c-11.2,0-17.4,7.6-17.4,19.7v46.1
		C46.8,214.6,53.1,222.2,64.2,222.2z M127.1,136.8c-2.5,0-4.6,2-4.6,4.6c0,0,0,0,0,0v30.6h-17.8v-30.6c0-2.5-2-4.6-4.6-4.6
		c0,0,0,0,0,0c-2.5,0-4.6,2-4.6,4.6c0,0,0,0,0,0v75.6c0,2.5,2,4.6,4.6,4.6c0,0,0,0,0,0c2.5,0,4.6-2,4.6-4.6c0,0,0,0,0,0v-36.6h17.8
		v36.6c0,2.5,2,4.6,4.6,4.6c0,0,0,0,0,0c2.5,0,4.6-2,4.6-4.6c0,0,0,0,0,0v-75.6C131.7,138.8,129.6,136.8,127.1,136.8
		C127.1,136.8,127.1,136.8,127.1,136.8z M153.6,221.5c2.5,0,4.6-2,4.6-4.6c0,0,0,0,0,0v-75.6c0-2.5-2-4.6-4.6-4.6c0,0,0,0,0,0
		c-2.5,0-4.6,2-4.6,4.6c0,0,0,0,0,0v75.6C149.1,219.4,151.1,221.5,153.6,221.5C153.6,221.5,153.6,221.5,153.6,221.5z M192.2,222.2
		c11.4,0,17.3-7.6,17.3-19.7v-1.7c0-3.1-1.9-4.9-4.4-4.9s-4.4,1.8-4.4,4.9v0.5c0,8.6-2.6,12.2-8.2,12.2s-8.5-3.7-8.5-12.6v-43
		c0-9,2.8-12.6,8.4-12.6c5.5,0,8.3,3.6,8.3,12.6v0.4c-0.2,2.4,1.6,4.5,4,4.7c0.1,0,0.3,0,0.4,0c2.4,0.1,4.4-1.8,4.4-4.1
		c0-0.1,0-0.2,0-0.3v-2.2c0-12.1-5.9-19.7-17.3-19.7c-11.2,0-17.4,7.6-17.4,19.7v46.1C174.8,214.6,181,222.2,192.2,222.2z
		 M251.6,177.1c3.2-1.6,5.9-6.2,5.9-13v-22.8c0-2.5-2-4.6-4.6-4.6c0,0,0,0,0,0c-2.5,0-4.6,2-4.6,4.6c0,0,0,0,0,0v22
		c0,5.9-2.8,8.8-8.5,8.8h-7.1v-30.7c0-2.5-2-4.6-4.6-4.6c0,0,0,0,0,0c-2.5,0-4.6,2-4.6,4.6c0,0,0,0,0,0v75.8c0,2.5,2,4.6,4.6,4.6
		c0,0,0,0,0,0c2.5,0,4.6-2,4.6-4.6c0,0,0,0,0,0v-36.2h6.5c5.9,0,10,5.3,10,12.1v24.1c0,2.5,2,4.6,4.6,4.6c0,0,0,0,0,0
		c2.5,0,4.6-2,4.6-4.6c0,0,0,0,0,0v-26.6C258.4,185.2,255.9,180.2,251.6,177.1z"/>
</g>
</svg>
