<?xml version="1.0" encoding="utf-8"?>
<!-- Generator: Adobe Illustrator 26.0.2, SVG Export Plug-In . SVG Version: 6.00 Build 0)  -->
<svg version="1.1" id="レイヤー_1" xmlns="http://www.w3.org/2000/svg" xmlns:xlink="http://www.w3.org/1999/xlink" x="0px"
	 y="0px" viewBox="0 0 142.4 640" style="enable-background:new 0 0 142.4 640;" xml:space="preserve">
<style type="text/css">
	.st0{fill:#FFFFFF;}
</style>
<path id="パス_26" class="st0" d="M14.4,59.4V31.6h56v24.8c-0.1,4,3,7.3,6.9,7.4c0,0,0,0,0.1,0c4-0.1,7.1-3.4,7-7.3c0,0,0,0,0-0.1
	V31.6h42v27.8c-0.1,4,3,7.3,6.9,7.4c0,0,0,0,0.1,0c4-0.1,7.1-3.4,7-7.3c0,0,0,0,0-0.1V28.6c0-8.6-3.6-12.2-12-12.2h-116
	c-8.4,0-12,3.6-12,12.2v30.8c-0.1,4,3,7.3,6.9,7.4c0,0,0,0,0.1,0C11.4,66.7,14.5,63.4,14.4,59.4C14.4,59.4,14.4,59.4,14.4,59.4z
	 M0.4,102v29.4c0,4.4,3,7.6,7.2,7.6s7.2-3.2,7.2-7.6V105h118.8c4.2,0,7.6-3.4,7.6-7.6c0,0,0,0,0,0c0-4.2-3.4-7.6-7.6-7.6l0,0H12.4
	C4,89.8,0.4,93.4,0.4,102z M14.4,200.2v-27.8h56v24.8c-0.1,4,3,7.3,6.9,7.4c0,0,0,0,0.1,0c4-0.1,7.1-3.4,7-7.3c0,0,0,0,0-0.1v-24.8
	h42v27.8c-0.1,4,3,7.3,6.9,7.4c0,0,0,0,0.1,0c4-0.1,7.1-3.4,7-7.3c0,0,0,0,0-0.1v-30.8c0-8.6-3.6-12.2-12-12.2h-116
	c-8.4,0-12,3.6-12,12.2v30.8c-0.1,4,3,7.3,6.9,7.4c0,0,0,0,0.1,0C11.4,207.5,14.5,204.2,14.4,200.2
	C14.4,200.2,14.4,200.2,14.4,200.2L14.4,200.2z M140.4,257.4v-14.6c0-8.6-3.6-12.2-12-12.2H7.6c-4.2,0-7.6,3.4-7.6,7.6l0,0
	c0,4.2,3.4,7.6,7.6,7.6c0,0,0,0,0,0h32v11.6c0,20,13.2,31.6,37.4,31.6h26C127.2,289,140.4,277.4,140.4,257.4L140.4,257.4z
	 M80.2,273.8c-18,0-26.6-5-26.6-17.8v-10.2h72.8V256c0,12.8-8.6,17.8-26.6,17.8H80.2z M141.2,364.4c0-4.2-3.4-7.6-7.6-7.6h0h-51
	v-29.6h51c4.2,0,7.6-3.4,7.6-7.6l0,0c0-4.2-3.4-7.6-7.6-7.6h0H7.6c-4.2,0-7.6,3.4-7.6,7.6v0c0,4.2,3.4,7.6,7.6,7.6c0,0,0,0,0,0h61
	v29.6h-61c-4.2,0-7.6,3.4-7.6,7.6c0,4.2,3.4,7.6,7.6,7.6c0,0,0,0,0,0h126C137.8,372,141.2,368.6,141.2,364.4L141.2,364.4z
	 M142.4,429c0-19.6-12.6-30-32.8-30H7.6c-4.2,0-7.6,3.4-7.6,7.6l0,0c0,4.2,3.4,7.6,7.6,7.6c0,0,0,0,0,0h43.2v29.6H7.6
	c-4.2,0-7.6,3.4-7.6,7.6c0,4.2,3.4,7.6,7.6,7.6c0,0,0,0,0,0h102C129.8,459,142.4,448.6,142.4,429z M64.8,414.2H107
	c15,0,21,5.2,21,14.8s-6,14.8-21,14.8H64.8V414.2z M0,492.6c0,4.2,3.4,7.6,7.6,7.6c0,0,0,0,0,0H107c15,0,21,5,21,14.4
	c0,9.4-6,14.4-21,14.4H7.6c-4.2,0-7.6,3.4-7.6,7.6c0,4.2,3.4,7.6,7.6,7.6h102c20.2,0,32.8-10.2,32.8-29.6
	c0-19.4-12.6-29.6-32.8-29.6H7.6C3.4,485,0,488.4,0,492.6L0,492.6z M0,591.4c0,4.2,3.4,7.6,7.6,7.6h118.8v17.2c-0.1,4,3,7.3,6.9,7.4
	c0,0,0,0,0.1,0c4-0.1,7.1-3.4,7-7.3c0,0,0,0,0-0.1v-49.6c0.1-4-3-7.3-6.9-7.4c0,0,0,0-0.1,0c-4,0.1-7.1,3.4-7,7.3c0,0,0,0,0,0.1
	v17.2H7.6C3.4,583.8,0,587.2,0,591.4z"/>
</svg>
