<?xml version="1.0" encoding="utf-8"?>
<!-- Generator: Adobe Illustrator 26.0.2, SVG Export Plug-In . SVG Version: 6.00 Build 0)  -->
<svg version="1.1" id="レイヤー_1" xmlns="http://www.w3.org/2000/svg" xmlns:xlink="http://www.w3.org/1999/xlink" x="0px"
	 y="0px" viewBox="0 0 400 85.4" style="enable-background:new 0 0 400 85.4;" xml:space="preserve">
<style type="text/css">
	.st0{fill:#FFFFFF;}
</style>
<g id="name" transform="translate(-28.4 -135.04)">
	<path id="パス_26" class="st0" d="M72,211.8H55.4v-33.6h14.9c2.4,0.1,4.4-1.8,4.4-4.2c0,0,0,0,0,0c-0.1-2.4-2-4.3-4.4-4.2
		c0,0,0,0,0,0H55.4v-25.2H72c2.4,0.1,4.4-1.8,4.4-4.2c0,0,0,0,0,0c-0.1-2.4-2-4.3-4.4-4.2c0,0,0,0,0,0H53.6c-5.2,0-7.3,2.2-7.3,7.2
		V213c0,5,2.2,7.2,7.3,7.2H72c2.4,0.1,4.4-1.8,4.4-4.2c0,0,0,0,0,0C76.4,213.7,74.4,211.8,72,211.8C72.1,211.8,72.1,211.8,72,211.8z
		 M97.6,220.2h17.6c2.4,0.1,4.4-1.6,4.6-4c0-0.1,0-0.2,0-0.3c0-2.4-1.9-4.3-4.3-4.3c-0.1,0-0.2,0-0.3,0H99.4v-71.3
		c0-2.5-2-4.6-4.6-4.6c0,0,0,0,0,0c-2.5,0-4.6,2-4.6,4.6c0,0,0,0,0,0V213C90.3,218.1,92.4,220.2,97.6,220.2z M156.5,211.8h-16.7
		v-33.6h14.9c2.4,0.1,4.4-1.8,4.4-4.2c0,0,0,0,0,0c-0.1-2.4-2-4.3-4.4-4.2c0,0,0,0,0,0h-14.9v-25.2h16.7c2.4,0.1,4.4-1.8,4.4-4.2
		c0,0,0,0,0,0c-0.1-2.4-2-4.3-4.4-4.2c0,0,0,0,0,0H138c-5.2,0-7.3,2.2-7.3,7.2V213c0,5,2.2,7.2,7.3,7.2h18.5
		c2.4,0.1,4.4-1.8,4.4-4.2c0,0,0,0,0,0C160.9,213.7,158.9,211.8,156.5,211.8C156.5,211.8,156.5,211.8,156.5,211.8z M190.8,136.2
		h-8.8c-5.2,0-7.3,2.2-7.3,7.2v72.5c0,2.5,2,4.6,4.6,4.6c0,0,0,0,0,0c2.5,0,4.6-2,4.6-4.6c0,0,0,0,0,0v-19.2h7c12,0,19-7.9,19-22.4
		v-15.6C209.8,144.2,202.8,136.2,190.8,136.2z M200.7,172.4c0,10.8-3,16-10.7,16h-6.1v-43.7h6.1c7.7,0,10.7,5.2,10.7,16V172.4z
		 M255,135.8c-2.5,0-4.6,2-4.6,4.6c0,0,0,0,0,0v30.6h-17.8v-30.6c0-2.5-2-4.6-4.6-4.6c0,0,0,0,0,0c-2.5,0-4.6,2-4.6,4.6c0,0,0,0,0,0
		v75.6c0,2.5,2,4.6,4.6,4.6c0,0,0,0,0,0c2.5,0,4.6-2,4.6-4.6c0,0,0,0,0,0v-36.6h17.8v36.6c0,2.5,2,4.6,4.6,4.6c0,0,0,0,0,0
		c2.5,0,4.6-2,4.6-4.6c0,0,0,0,0,0v-75.6C259.6,137.8,257.6,135.8,255,135.8C255,135.8,255,135.8,255,135.8z M293.8,135
		c-11.8,0-18,7.6-18,19.7v61.2c0,2.5,2,4.6,4.6,4.6c0,0,0,0,0,0c2.5,0,4.6-2,4.6-4.6c0,0,0,0,0,0V190h17.8v25.9c0,2.5,2,4.6,4.6,4.6
		c0,0,0,0,0,0c2.5,0,4.6-2,4.6-4.6c0,0,0,0,0,0v-61.2C311.8,142.6,305.6,135,293.8,135L293.8,135z M284.9,181.6v-25.3
		c0-9,3.1-12.6,8.9-12.6s8.9,3.6,8.9,12.6v25.3H284.9z M332,220.5c2.5,0,4.6-2,4.6-4.6c0,0,0,0,0,0v-59.6c0-9,3-12.6,8.6-12.6
		s8.6,3.6,8.6,12.6v59.6c0,2.5,2,4.6,4.6,4.6c0,0,0,0,0,0c2.5,0,4.6-2,4.6-4.6c0,0,0,0,0,0v-61.2c0-12.1-6.1-19.7-17.8-19.7
		s-17.8,7.6-17.8,19.7v61.2C327.4,218.4,329.4,220.5,332,220.5C332,220.5,332,220.5,332,220.5z M391.2,220.5c2.5,0,4.6-2,4.6-4.6
		c0,0,0,0,0,0v-71.3h10.3c2.4,0.1,4.4-1.8,4.4-4.2c0,0,0,0,0,0c-0.1-2.4-2-4.3-4.4-4.2c0,0,0,0,0,0h-29.8c-2.4-0.1-4.4,1.8-4.4,4.2
		c0,0,0,0,0,0c0.1,2.4,2,4.3,4.4,4.2c0,0,0,0,0,0h10.3v71.3C386.7,218.4,388.7,220.5,391.2,220.5
		C391.2,220.5,391.2,220.5,391.2,220.5z"/>
</g>
</svg>
