<?xml version="1.0" encoding="utf-8"?>
<!-- Generator: Adobe Illustrator 26.0.2, SVG Export Plug-In . SVG Version: 6.00 Build 0)  -->
<svg version="1.1" id="レイヤー_1" xmlns="http://www.w3.org/2000/svg" xmlns:xlink="http://www.w3.org/1999/xlink" x="0px"
	 y="0px" viewBox="0 0 620 86.2" style="enable-background:new 0 0 620 86.2;" xml:space="preserve">
<style type="text/css">
	.st0{fill:#FFFFFF;}
</style>
<g id="name" transform="translate(85.6 -102.04)">
	<path id="パス_30" class="st0" d="M-35.4,102.8c-2.5,0-4.6,2-4.6,4.6c0,0,0,0,0,0v30.6h-17.8v-30.6c0-2.5-2-4.6-4.6-4.6
		c0,0,0,0,0,0c-2.5,0-4.6,2-4.6,4.6c0,0,0,0,0,0v75.6c0,2.5,2,4.6,4.6,4.6c0,0,0,0,0,0c2.5,0,4.6-2,4.6-4.6c0,0,0,0,0,0v-36.6H-40
		v36.6c0,2.5,2,4.6,4.6,4.6c0,0,0,0,0,0c2.5,0,4.6-2,4.6-4.6c0,0,0,0,0,0v-75.6C-30.8,104.8-32.9,102.8-35.4,102.8
		C-35.4,102.8-35.4,102.8-35.4,102.8z M-8.9,187.5c2.5,0,4.6-2,4.6-4.6c0,0,0,0,0,0v-75.6c0-2.5-2-4.6-4.6-4.6c0,0,0,0,0,0
		c-2.5,0-4.6,2-4.6,4.6c0,0,0,0,0,0v75.6C-13.4,185.4-11.4,187.5-8.9,187.5C-8.9,187.5-8.9,187.5-8.9,187.5z M29.2,103.2h-8.8
		c-5.2,0-7.3,2.2-7.3,7.2v72.5c0,2.5,2,4.6,4.6,4.6c0,0,0,0,0,0c2.5,0,4.6-2,4.6-4.6c0,0,0,0,0,0v-19.2h7c12,0,19-7.9,19-22.4v-15.6
		C48.1,111.2,41.2,103.2,29.2,103.2z M39,139.4c0,10.8-3,16-10.7,16h-6.1v-43.7h6.1c7.7,0,10.7,5.2,10.7,16V139.4z M76.6,103.2h-8.8
		c-5.2,0-7.3,2.2-7.3,7.2v72.5c0,2.5,2,4.6,4.6,4.6c0,0,0,0,0,0c2.5,0,4.6-2,4.6-4.6c0,0,0,0,0,0v-19.2h7c12,0,19-7.9,19-22.4v-15.6
		C95.5,111.2,88.6,103.2,76.6,103.2z M86.4,139.4c0,10.8-3,16-10.7,16h-6.1v-43.7h6.1c7.7,0,10.7,5.2,10.7,16L86.4,139.4z
		 M126.5,188.2c11.8,0,18-7.6,18-19.7v-46.3c0-12.1-6.2-19.7-18-19.7s-18,7.6-18,19.7v46.3C108.5,180.6,114.7,188.2,126.5,188.2z
		 M126.5,179.6c-5.8,0-8.9-3.6-8.9-12.6v-43.2c0-9,3.1-12.6,8.9-12.6s8.9,3.6,8.9,12.6V167C135.4,176,132.2,179.6,126.5,179.6z
		 M176.5,103.2h-8.8c-5.2,0-7.3,2.2-7.3,7.2v72.5c0,2.5,2,4.6,4.6,4.6c0,0,0,0,0,0c2.5,0,4.6-2,4.6-4.6c0,0,0,0,0,0v-19.2h7
		c12,0,19-7.9,19-22.4v-15.6C195.5,111.2,188.5,103.2,176.5,103.2L176.5,103.2z M186.4,139.4c0,10.8-3,16-10.7,16h-6.1v-43.7h6.1
		c7.7,0,10.7,5.2,10.7,16V139.4z M226.4,188.2c11.8,0,18-7.6,18-19.7v-46.3c0-12.1-6.2-19.7-18-19.7s-18,7.6-18,19.7v46.3
		C208.4,180.6,214.7,188.2,226.4,188.2z M226.4,179.6c-5.8,0-8.9-3.6-8.9-12.6v-43.2c0-9,3.1-12.6,8.9-12.6s8.9,3.6,8.9,12.6V167
		C235.3,176,232.2,179.6,226.4,179.6z M272.3,187.5c2.5,0,4.6-2,4.6-4.6c0,0,0,0,0,0v-71.3h10.3c2.4,0.1,4.4-1.8,4.4-4.2
		c0,0,0,0,0,0c-0.1-2.4-2-4.3-4.4-4.2c0,0,0,0,0,0h-29.8c-2.4-0.1-4.4,1.8-4.4,4.2c0,0,0,0,0,0c0.1,2.4,2,4.3,4.4,4.2c0,0,0,0,0,0
		h10.3v71.3C267.7,185.4,269.8,187.5,272.3,187.5C272.3,187.5,272.3,187.5,272.3,187.5z M318.6,102c-11.8,0-18,7.6-18,19.7v61.2
		c0,2.5,2,4.6,4.6,4.6c0,0,0,0,0,0c2.5,0,4.6-2,4.6-4.6c0,0,0,0,0,0V157h17.8v25.9c0,2.5,2,4.6,4.6,4.6c0,0,0,0,0,0
		c2.5,0,4.6-2,4.6-4.6c0,0,0,0,0,0v-61.2C336.6,109.6,330.4,102,318.6,102z M309.7,148.6v-25.3c0-9,3.1-12.6,8.9-12.6
		s8.9,3.6,8.9,12.6v25.3H309.7z M357,187.5c2.5,0,4.6-2,4.6-4.6c0,0,0,0,0,0v-59.4c0-8.6,2.9-12.6,8.4-12.6s8.4,4,8.4,12.6v59.4
		c0,2.5,2,4.6,4.6,4.6c0,0,0,0,0,0c2.5,0,4.6-2,4.6-4.6c0,0,0,0,0,0v-59.4c0-8.6,2.9-12.6,8.4-12.6s8.4,4,8.4,12.6v59.4
		c0,2.5,2,4.6,4.6,4.6c0,0,0,0,0,0c2.5,0,4.6-2,4.6-4.6c0,0,0,0,0,0v-60.7c0-12.1-6.2-19.7-17.5-19.7c-5.1-0.1-10,2.3-13,6.5
		c-3-4.1-7.8-6.6-13-6.5c-11.3,0-17.5,7.6-17.5,19.7v60.7C352.4,185.4,354.5,187.5,357,187.5C357,187.5,357,187.5,357,187.5z
		 M447.2,188.2c11.8,0,18-7.6,18-19.7v-61.2c0-2.5-2-4.6-4.6-4.6c0,0,0,0,0,0c-2.5,0-4.6,2-4.6,4.6c0,0,0,0,0,0V167
		c0,9-3.1,12.6-8.9,12.6s-8.9-3.6-8.9-12.6v-59.6c0-2.5-2-4.6-4.6-4.6c0,0,0,0,0,0c-2.5,0-4.6,2-4.6,4.6c0,0,0,0,0,0v61.2
		C429.2,180.6,435.5,188.2,447.2,188.2z M496.4,188.1c11.2,0,19.2-6.6,19.2-25.4c0-13.8-4.1-20.3-15.4-27.5l-4.6-3
		c-4.7-3-6.7-6.1-6.7-11.8c0-5.8,3.4-9.7,8.4-9.7c4.6,0,7.8,2.3,7.8,9.7v0.7c-0.2,2.4,1.6,4.5,4,4.7c0.1,0,0.3,0,0.4,0
		c2.3,0.1,4.3-1.7,4.4-4c0-0.2,0-0.3,0-0.5v-1c0-12.1-6.2-18.1-16.9-18.1c-10.2,0-17.3,7.1-17.3,18.1c0,9.6,3.7,15,11.5,20l4.6,3
		c7.9,5.2,10.4,10.2,10.4,19.8c0,12.1-3.8,16.3-9.7,16.3c-6.1,0-9.7-4.9-9.7-12.2c0-2.6,0.5-5.2,1.4-7.7c1-2.5,0.2-5.4-2.2-6.1
		c-2.6-0.9-5.4,0.4-6.4,3c-1.4,3.6-2.1,7.4-2,11.3C477.8,180.5,485.4,188.1,496.4,188.1z"/>
</g>
</svg>
