<?xml version="1.0" encoding="utf-8"?>
<!-- Generator: Adobe Illustrator 26.0.2, SVG Export Plug-In . SVG Version: 6.00 Build 0)  -->
<svg version="1.1" id="name" xmlns="http://www.w3.org/2000/svg" xmlns:xlink="http://www.w3.org/1999/xlink" x="0px" y="0px"
	 viewBox="0 0 143.6 1010" style="enable-background:new 0 0 143.6 1010;" xml:space="preserve">
<style type="text/css">
	.st0{fill:#FFFFFF;}
</style>
<path id="パス_30" class="st0" d="M142.4,72c0-4.2-3.4-7.6-7.6-7.6l0,0h-51V34.8h51c4.2,0,7.6-3.4,7.6-7.6c0,0,0,0,0,0
	c0-4.2-3.4-7.6-7.6-7.6l0,0H8.8c-4.2,0-7.6,3.4-7.6,7.6c0,4.2,3.4,7.6,7.6,7.6c0,0,0,0,0,0h61v29.6h-61c-4.2,0-7.6,3.4-7.6,7.6
	c0,0,0,0,0,0c0,4.2,3.4,7.6,7.6,7.6h126C139,79.6,142.4,76.2,142.4,72z M1.2,116.2c0,4.2,3.4,7.6,7.6,7.6h126c4.2,0,7.6-3.4,7.6-7.6
	c0,0,0,0,0,0c0-4.2-3.4-7.6-7.6-7.6l0,0H8.8C4.6,108.6,1.2,112,1.2,116.2L1.2,116.2z M141.6,179.6V165c0-8.6-3.6-12.2-12-12.2H8.8
	c-4.2,0-7.6,3.4-7.6,7.6l0,0c0,4.2,3.4,7.6,7.6,7.6c0,0,0,0,0,0h32v11.6c0,20,13.2,31.6,37.4,31.6h26
	C128.4,211.2,141.6,199.6,141.6,179.6z M81.4,196c-18,0-26.6-5-26.6-17.8V168h72.8v10.2c0,12.8-8.6,17.8-26.6,17.8H81.4z
	 M141.6,258.6V244c0-8.6-3.6-12.2-12-12.2H8.8c-4.2,0-7.6,3.4-7.6,7.6l0,0c0,4.2,3.4,7.6,7.6,7.6c0,0,0,0,0,0h32v11.6
	c0,20,13.2,31.6,37.4,31.6h26C128.4,290.2,141.6,278.6,141.6,258.6z M81.4,275c-18,0-26.6-5-26.6-17.8V247h72.8v10.2
	c0,12.8-8.6,17.8-26.6,17.8H81.4z M0,341.8c0,19.6,12.6,30,32.8,30H110c20.2,0,32.8-10.4,32.8-30s-12.6-30-32.8-30H32.8
	C12.6,311.8,0,322.2,0,341.8z M14.4,341.8c0-9.6,6-14.8,21-14.8h72c15,0,21,5.2,21,14.8s-6,14.8-21,14.8h-72
	C20.4,356.6,14.4,351.4,14.4,341.8z M141.6,425.2v-14.6c0-8.6-3.6-12.2-12-12.2H8.8c-4.2,0-7.6,3.4-7.6,7.6l0,0
	c0,4.2,3.4,7.6,7.6,7.6c0,0,0,0,0,0h32v11.6c0,20,13.2,31.6,37.4,31.6h26C128.4,456.8,141.6,445.2,141.6,425.2L141.6,425.2z
	 M81.4,441.6c-18,0-26.6-5-26.6-17.8v-10.2h72.8v10.2c0,12.8-8.6,17.8-26.6,17.8H81.4z M0,508.4c0,19.6,12.6,30,32.8,30H110
	c20.2,0,32.8-10.4,32.8-30c0-19.6-12.6-30-32.8-30H32.8C12.6,478.4,0,488.8,0,508.4z M14.4,508.4c0-9.6,6-14.8,21-14.8h72
	c15,0,21,5.2,21,14.8c0,9.6-6,14.8-21,14.8h-72C20.4,523.2,14.4,518,14.4,508.4z M1.2,584.8c0,4.2,3.4,7.6,7.6,7.6h118.8v17.2
	c-0.1,4,3,7.3,6.9,7.4c0,0,0,0,0.1,0c4-0.1,7.1-3.4,7-7.3c0,0,0,0,0-0.1V560c0.1-4-3-7.3-6.9-7.4c0,0,0,0-0.1,0
	c-4,0.1-7.1,3.4-7,7.3c0,0,0,0,0,0.1v17.2H8.8C4.6,577.2,1.2,580.6,1.2,584.8z M143.6,662c0-19.6-12.6-30-32.8-30H8.8
	c-4.2,0-7.6,3.4-7.6,7.6c0,4.2,3.4,7.6,7.6,7.6H52v29.6H8.8c-4.2,0-7.6,3.4-7.6,7.6c0,0,0,0,0,0c0,4.2,3.4,7.6,7.6,7.6h102
	C131,692,143.6,681.6,143.6,662L143.6,662z M66,647.2h42.2c15,0,21,5.2,21,14.8s-6,14.8-21,14.8H66V647.2z M1.2,726
	c0,4.2,3.4,7.6,7.6,7.6h99c14.4,0,21,4.8,21,14s-6.6,14-21,14h-99c-4.2,0-7.6,3.4-7.6,7.6c0,4.2,3.4,7.6,7.6,7.6h99
	c14.4,0,21,4.8,21,14s-6.6,14-21,14h-99c-4.2,0-7.6,3.4-7.6,7.6c0,0,0,0,0,0c0,4.2,3.4,7.6,7.6,7.6H110c20.2,0,32.8-10.4,32.8-29.2
	c0.1-8.5-3.9-16.6-10.8-21.6c6.9-5,10.9-13.1,10.8-21.6c0-18.8-12.6-29.2-32.8-29.2H8.8C4.6,718.4,1.2,721.8,1.2,726
	C1.2,726,1.2,726,1.2,726z M0,876.4c0,19.6,12.6,30,32.8,30h102c4.2,0,7.6-3.4,7.6-7.6c0-4.2-3.4-7.6-7.6-7.6H35.4
	c-15,0-21-5.2-21-14.8s6-14.8,21-14.8h99.4c4.2,0,7.6-3.4,7.6-7.6c0-4.2-3.4-7.6-7.6-7.6h-102C12.6,846.4,0,856.8,0,876.4z
	 M0.2,958.4c0,18.6,11,32,42.4,32c23,0,33.8-6.8,45.8-25.6l5-7.6c5-7.8,10.2-11.2,19.6-11.2c9.6,0,16.2,5.6,16.2,14
	c0,7.6-3.8,13-16.2,13h-1.2c-5,0-7.8,3.4-7.8,7.4c-0.2,3.9,2.8,7.2,6.6,7.4c0.3,0,0.5,0,0.8,0h1.6c20.2,0,30.2-10.4,30.2-28.2
	c0-17-11.8-28.8-30.2-28.8c-16,0-25,6.2-33.4,19.2l-5,7.6c-8.6,13.2-17,17.4-33,17.4c-20.2,0-27.2-6.4-27.2-16.2
	c0-10.2,8.2-16.2,20.4-16.2c4.4,0,8.7,0.8,12.8,2.4c4.2,1.6,9,0.4,10.2-3.6c1.4-4.4-0.4-8.6-5-10.6c-6-2.3-12.4-3.5-18.8-3.4
	C12.8,927.4,0.2,940,0.2,958.4z"/>
</svg>
