<?xml version="1.0" encoding="utf-8"?>
<!-- Generator: Adobe Illustrator 26.0.2, SVG Export Plug-In . SVG Version: 6.00 Build 0)  -->
<svg version="1.1" id="name" xmlns="http://www.w3.org/2000/svg" xmlns:xlink="http://www.w3.org/1999/xlink" x="0px" y="0px"
	 viewBox="0 0 143.2 470" style="enable-background:new 0 0 143.2 470;" xml:space="preserve">
<style type="text/css">
	.st0{fill:#FFFFFF;}
</style>
<path id="パス_31" class="st0" d="M1.2,27.8c0,4.2,3.4,7.6,7.6,7.6c0,0,0,0,0,0h99c14.4,0,21,4.8,21,14s-6.6,14-21,14h-99
	c-4.2,0-7.6,3.4-7.6,7.6l0,0c0,4.2,3.4,7.6,7.6,7.6h99c14.4,0,21,4.8,21,14s-6.6,14-21,14h-99c-4.2,0-7.6,3.4-7.6,7.6v0
	c0,4.2,3.4,7.6,7.6,7.6H110c20.2,0,32.8-10.4,32.8-29.2c0.1-8.5-3.9-16.6-10.8-21.6c6.9-5,10.9-13.1,10.8-21.6
	c0-18.8-12.6-29.2-32.8-29.2H8.8C4.6,20.2,1.2,23.6,1.2,27.8L1.2,27.8z M0,177.8c0,19.6,12.6,30,32.8,30H110
	c20.2,0,32.8-10.4,32.8-30s-12.6-30-32.8-30H32.8C12.6,147.8,0,158.2,0,177.8z M14.4,177.8c0-9.6,6-14.8,21-14.8h72
	c15,0,21,5.2,21,14.8s-6,14.8-21,14.8h-72C20.4,192.6,14.4,187.4,14.4,177.8z M0,263.4c0,19.6,12.6,30,32.8,30h102
	c4.2,0,7.6-3.4,7.6-7.6l0,0c0-4.2-3.4-7.6-7.6-7.6h0H35.4c-15,0-21-5.2-21-14.8c0-9.6,6-14.8,21-14.8h99.4c4.2,0,7.6-3.4,7.6-7.6v0
	c0-4.2-3.4-7.6-7.6-7.6h0h-102C12.6,233.4,0,243.8,0,263.4z M0.2,345.4c0,18.6,11,32,42.4,32c23,0,33.8-6.8,45.8-25.6l5-7.6
	c5-7.8,10.2-11.2,19.6-11.2c9.6,0,16.2,5.6,16.2,14c0,7.6-3.8,13-16.2,13h-1.2c-5,0-7.8,3.4-7.8,7.4c-0.2,3.9,2.8,7.2,6.6,7.4
	c0.3,0,0.5,0,0.8,0h1.6c20.2,0,30.2-10.4,30.2-28.2c0-17-11.8-28.8-30.2-28.8c-16,0-25,6.2-33.4,19.2l-5,7.6
	c-8.6,13.2-17,17.4-33,17.4c-20.2,0-27.2-6.4-27.2-16.2c0-10.2,8.2-16.2,20.4-16.2c4.4,0,8.7,0.8,12.8,2.4c4.2,1.6,9,0.4,10.2-3.6
	c1.4-4.4-0.4-8.6-5-10.6c-6-2.3-12.4-3.5-18.8-3.4C12.8,314.4,0.2,327,0.2,345.4z M15.6,442.4v-27.8h56v24.8c-0.1,4,3,7.3,6.9,7.4
	c0,0,0,0,0.1,0c4-0.1,7.1-3.4,7-7.3c0,0,0,0,0-0.1v-24.8h42v27.8c-0.1,4,3,7.3,6.9,7.4c0,0,0,0,0.1,0c4-0.1,7.1-3.4,7-7.3
	c0,0,0,0,0-0.1v-30.8c0-8.6-3.6-12.2-12-12.2h-116c-8.4,0-12,3.6-12,12.2v30.8c-0.1,4,3,7.3,6.9,7.4c0,0,0,0,0.1,0
	C12.6,449.7,15.7,446.4,15.6,442.4C15.6,442.4,15.6,442.4,15.6,442.4z"/>
</svg>
