<?xml version="1.0" encoding="utf-8"?>
<!-- Generator: Adobe Illustrator 26.0.2, SVG Export Plug-In . SVG Version: 6.00 Build 0)  -->
<svg version="1.1" id="レイヤー_1" xmlns="http://www.w3.org/2000/svg" xmlns:xlink="http://www.w3.org/1999/xlink" x="0px"
	 y="0px" viewBox="0 0 290 85.9" style="enable-background:new 0 0 290 85.9;" xml:space="preserve">
<style type="text/css">
	.st0{fill:#FFFFFF;}
</style>
<g id="name" transform="translate(-28.04 -118.28)">
	<path id="パス_31" class="st0" d="M48.7,203.5c2.5,0,4.6-2,4.6-4.6c0,0,0,0,0,0v-59.4c0-8.6,2.9-12.6,8.4-12.6s8.4,4,8.4,12.6
		v59.4c0,2.5,2,4.6,4.6,4.6c0,0,0,0,0,0c2.5,0,4.6-2,4.6-4.6c0,0,0,0,0,0v-59.4c0-8.6,2.9-12.6,8.4-12.6c5.5,0,8.4,4,8.4,12.6v59.4
		c0,2.5,2,4.6,4.6,4.6c0,0,0,0,0,0c2.5,0,4.6-2,4.6-4.6c0,0,0,0,0,0v-60.7c0-12.1-6.2-19.7-17.5-19.7c-5.1-0.1-10,2.3-13,6.5
		c-3-4.1-7.8-6.6-13-6.5c-11.3,0-17.5,7.6-17.5,19.7v60.7C44.2,201.4,46.2,203.5,48.7,203.5C48.7,203.5,48.7,203.5,48.7,203.5z
		 M138.7,204.2c11.8,0,18-7.6,18-19.7v-46.3c0-12.1-6.2-19.7-18-19.7c-11.8,0-18,7.6-18,19.7v46.3
		C120.7,196.6,127,204.2,138.7,204.2z M138.7,195.6c-5.8,0-8.9-3.6-8.9-12.6v-43.2c0-9,3.1-12.6,8.9-12.6s8.9,3.6,8.9,12.6V183
		C147.6,192,144.5,195.6,138.7,195.6z M190.1,204.2c11.8,0,18-7.6,18-19.7v-61.2c0-2.5-2-4.6-4.6-4.6c0,0,0,0,0,0
		c-2.5,0-4.6,2-4.6,4.6c0,0,0,0,0,0V183c0,9-3.1,12.6-8.9,12.6s-8.9-3.6-8.9-12.6v-59.6c0-2.5-2-4.6-4.6-4.6c0,0,0,0,0,0
		c-2.5,0-4.6,2-4.6,4.6c0,0,0,0,0,0v61.2C172.1,196.6,178.3,204.2,190.1,204.2z M239.3,204.1c11.2,0,19.2-6.6,19.2-25.4
		c0-13.8-4.1-20.3-15.4-27.5l-4.6-3c-4.7-3-6.7-6.1-6.7-11.8c0-5.8,3.4-9.7,8.4-9.7c4.6,0,7.8,2.3,7.8,9.7v0.7
		c-0.2,2.4,1.6,4.5,4,4.7c0.1,0,0.3,0,0.4,0c2.3,0.1,4.3-1.7,4.4-4c0-0.2,0-0.3,0-0.5v-1c0-12.1-6.2-18.1-16.9-18.1
		c-10.2,0-17.3,7.1-17.3,18.1c0,9.6,3.7,15,11.5,20l4.6,3c7.9,5.2,10.4,10.2,10.4,19.8c0,12.1-3.8,16.3-9.7,16.3
		c-6.1,0-9.7-4.9-9.7-12.2c0-2.6,0.5-5.2,1.4-7.7c1-2.5,0.2-5.4-2.2-6.1c-2.6-0.9-5.4,0.4-6.4,3c-1.4,3.6-2.1,7.4-2,11.3
		C220.7,196.5,228.2,204.1,239.3,204.1z M297.5,194.8h-16.7v-33.6h14.9c2.4,0.1,4.4-1.8,4.4-4.2c0,0,0,0,0,0c-0.1-2.4-2-4.3-4.4-4.2
		c0,0,0,0,0,0h-14.9v-25.2h16.7c2.4,0.1,4.4-1.8,4.4-4.2c0,0,0,0,0,0c-0.1-2.4-2-4.3-4.4-4.2c0,0,0,0,0,0H279
		c-5.2,0-7.3,2.2-7.3,7.2V196c0,5,2.2,7.2,7.3,7.2h18.5c2.4,0.1,4.4-1.8,4.4-4.2c0,0,0,0,0,0C301.9,196.7,299.9,194.8,297.5,194.8
		C297.5,194.8,297.5,194.8,297.5,194.8L297.5,194.8z"/>
</g>
</svg>
