<?xml version="1.0" encoding="utf-8"?>
<!-- Generator: Adobe Illustrator 26.0.2, SVG Export Plug-In . SVG Version: 6.00 Build 0)  -->
<svg version="1.1" id="name" xmlns="http://www.w3.org/2000/svg" xmlns:xlink="http://www.w3.org/1999/xlink" x="0px" y="0px"
	 viewBox="0 0 142.4 430" style="enable-background:new 0 0 142.4 430;" xml:space="preserve">
<style type="text/css">
	.st0{fill:#FFFFFF;}
</style>
<path id="パス_29" class="st0" d="M140.4,43.7V29.1c0-8.6-3.6-12.2-12-12.2H7.6c-4.2,0-7.6,3.4-7.6,7.6c0,4.2,3.4,7.6,7.6,7.6
	c0,0,0,0,0,0h32v11.6c0,20,13.2,31.6,37.4,31.6h26C127.2,75.3,140.4,63.7,140.4,43.7z M80.2,60.1c-18,0-26.6-5-26.6-17.8V32.1h72.8
	v10.2c0,12.8-8.6,17.8-26.6,17.8H80.2z M142.4,127.3c0-19.6-12.6-30-32.8-30H7.6c-4.2,0-7.6,3.4-7.6,7.6v0c0,4.2,3.4,7.6,7.6,7.6
	h43.2v29.6H7.6c-4.2,0-7.6,3.4-7.6,7.6l0,0c0,4.2,3.4,7.6,7.6,7.6c0,0,0,0,0,0h102C129.8,157.3,142.4,146.9,142.4,127.3z
	 M64.8,112.5H107c15,0,21,5.2,21,14.8s-6,14.8-21,14.8H64.8V112.5z M0,190.9c0,4.2,3.4,7.6,7.6,7.6c0,0,0,0,0,0H107
	c15,0,21,5,21,14.4s-6,14.4-21,14.4H7.6c-4.2,0-7.6,3.4-7.6,7.6l0,0c0,4.2,3.4,7.6,7.6,7.6c0,0,0,0,0,0h102
	c20.2,0,32.8-10.2,32.8-29.6s-12.6-29.6-32.8-29.6H7.6C3.4,183.3,0,186.7,0,190.9C0,190.9,0,190.9,0,190.9z M0,281.7v14.2
	c0,20,13.2,31.6,37.4,31.6H103c24.2,0,37.4-11.6,37.4-31.6v-14.2c0-8.6-3.6-12.2-12-12.2H12C3.6,269.5,0,273.1,0,281.7z M14,284.3
	h112.4v10.2c0,12.8-8.6,17.8-26.6,17.8H40.6c-18,0-26.6-5-26.6-17.8L14,284.3z M142.4,383.1c0-19.6-12.6-30-32.8-30H7.6
	c-4.2,0-7.6,3.4-7.6,7.6c0,4.2,3.4,7.6,7.6,7.6c0,0,0,0,0,0h43.2v29.6H7.6c-4.2,0-7.6,3.4-7.6,7.6l0,0c0,4.2,3.4,7.6,7.6,7.6
	c0,0,0,0,0,0h102C129.8,413.1,142.4,402.7,142.4,383.1L142.4,383.1z M64.8,368.3H107c15,0,21,5.2,21,14.8s-6,14.8-21,14.8H64.8
	V368.3z"/>
</svg>
