<?xml version="1.0" encoding="utf-8"?>
<!-- Generator: Adobe Illustrator 26.0.2, SVG Export Plug-In . SVG Version: 6.00 Build 0)  -->
<svg version="1.1" id="レイヤー_1" xmlns="http://www.w3.org/2000/svg" xmlns:xlink="http://www.w3.org/1999/xlink" x="0px"
	 y="0px" viewBox="0 0 270 85.4" style="enable-background:new 0 0 270 85.4;" xml:space="preserve">
<style type="text/css">
	.st0{fill:#FFFFFF;}
</style>
<g id="name" transform="translate(-28.4 -125.04)">
	<path id="パス_29" class="st0" d="M60.6,126.2h-8.8c-5.2,0-7.3,2.2-7.3,7.2v72.5c0,2.5,2,4.6,4.6,4.6c0,0,0,0,0,0
		c2.5,0,4.6-2,4.6-4.6c0,0,0,0,0,0v-19.2h7c12,0,19-7.9,19-22.4v-15.6C79.6,134.2,72.6,126.2,60.6,126.2z M70.5,162.4
		c0,10.8-3,16-10.7,16h-6.1v-43.7h6.1c7.7,0,10.7,5.2,10.7,16V162.4z M110.8,125c-11.8,0-18,7.6-18,19.7v61.2c0,2.5,2,4.6,4.6,4.6
		c0,0,0,0,0,0c2.5,0,4.6-2,4.6-4.6c0,0,0,0,0,0V180h17.8v25.9c0,2.5,2,4.6,4.6,4.6c0,0,0,0,0,0c2.5,0,4.6-2,4.6-4.6c0,0,0,0,0,0
		v-61.2C128.8,132.6,122.5,125,110.8,125z M101.9,171.6v-25.3c0-9,3.1-12.6,8.9-12.6s8.9,3.6,8.9,12.6v25.3H101.9z M148.9,210.5
		c2.5,0,4.6-2,4.6-4.6c0,0,0,0,0,0v-59.6c0-9,3-12.6,8.6-12.6s8.6,3.6,8.6,12.6v59.6c0,2.5,2,4.6,4.6,4.6c0,0,0,0,0,0
		c2.5,0,4.6-2,4.6-4.6c0,0,0,0,0,0v-61.2c0-12.1-6.1-19.7-17.8-19.7c-11.6,0-17.8,7.6-17.8,19.7v61.2
		C144.4,208.4,146.4,210.5,148.9,210.5C148.9,210.5,148.9,210.5,148.9,210.5z M203.4,210.5h8.5c12,0,19-7.9,19-22.4v-39.4
		c0-14.5-7-22.4-19-22.4h-8.5c-5.2,0-7.3,2.2-7.3,7.2v69.8C196.1,208.3,198.3,210.5,203.4,210.5z M205,202.1v-67.4h6.1
		c7.7,0,10.7,5.2,10.7,16v35.5c0,10.8-3,16-10.7,16H205z M264.3,125c-11.8,0-18,7.6-18,19.7v61.2c0,2.5,2,4.6,4.6,4.6c0,0,0,0,0,0
		c2.5,0,4.6-2,4.6-4.6c0,0,0,0,0,0V180h17.8v25.9c0,2.5,2,4.6,4.6,4.6c0,0,0,0,0,0c2.5,0,4.6-2,4.6-4.6c0,0,0,0,0,0v-61.2
		C282.3,132.6,276,125,264.3,125z M255.4,171.6v-25.3c0-9,3.1-12.6,8.9-12.6s8.9,3.6,8.9,12.6v25.3H255.4z"/>
</g>
</svg>
