<?xml version="1.0" encoding="utf-8"?>
<!-- Generator: Adobe Illustrator 26.0.2, SVG Export Plug-In . SVG Version: 6.00 Build 0)  -->
<svg version="1.1" id="name" xmlns="http://www.w3.org/2000/svg" xmlns:xlink="http://www.w3.org/1999/xlink" x="0px" y="0px"
	 viewBox="0 0 142.4 220" style="enable-background:new 0 0 142.4 220;" xml:space="preserve">
<style type="text/css">
	.st0{fill:#FFFFFF;}
</style>
<path id="パス_27" class="st0" d="M141.6,44.6V30c0-8.6-3.6-12.2-12-12.2H8.8c-4.2,0-7.6,3.4-7.6,7.6c0,4.2,3.4,7.6,7.6,7.6
	c0,0,0,0,0,0h32v11.6c0,20,13.2,31.6,37.4,31.6h26C128.4,76.2,141.6,64.6,141.6,44.6z M81.4,61c-18,0-26.6-5-26.6-17.8V33h72.8v10.2
	C127.6,56,119,61,101,61H81.4z M1.2,107.8c0,4.2,3.4,7.6,7.6,7.6h126c4.2,0,7.6-3.4,7.6-7.6c0,0,0,0,0,0c0-4.2-3.4-7.6-7.6-7.6l0,0
	H8.8C4.6,100.2,1.2,103.6,1.2,107.8L1.2,107.8z M0,173c0,19,12.6,29.2,32.8,29.2h38.4c5.6,0,8.8-3,8.8-8.6v-15.8c0.2-4-3-7.4-7-7.6
	c-0.1,0-0.3,0-0.4,0c-4-0.1-7.4,3.2-7.4,7.2c0,0.1,0,0.3,0,0.4v10.4H35.4c-14.6,0-21-5-21-15.2s5.6-14.8,19.4-14.8H107
	c14.2,0,21,5.2,21,15.2c0,10.6-6.6,14-18.8,14c-5,0-7.8,3.4-7.8,7.4c-0.1,3.9,2.9,7.3,6.9,7.4c0.2,0,0.4,0,0.5,0h2.8
	c19.4,0,30.8-9.8,30.8-28.8c0-19.6-12.6-30.4-32.8-30.4H31.2C11,143,0,153.4,0,173z"/>
</svg>
