<?xml version="1.0" encoding="utf-8"?>
<!-- Generator: Adobe Illustrator 26.0.2, SVG Export Plug-In . SVG Version: 6.00 Build 0)  -->
<svg version="1.1" id="レイヤー_1" xmlns="http://www.w3.org/2000/svg" xmlns:xlink="http://www.w3.org/1999/xlink" x="0px"
	 y="0px" viewBox="0 0 150 85.4" style="enable-background:new 0 0 150 85.4;" xml:space="preserve">
<style type="text/css">
	.st0{fill:#FFFFFF;}
</style>
<g id="name" transform="translate(-28.4 -139.76)">
	<path id="パス_27" class="st0" d="M64.2,140.2h-8.8c-5.2,0-7.3,2.2-7.3,7.2v72.5c0,2.5,2,4.6,4.6,4.6c0,0,0,0,0,0
		c2.5,0,4.6-2,4.6-4.6c0,0,0,0,0,0v-19.2h7c12,0,19-7.9,19-22.4v-15.6C83.1,148.2,76.2,140.2,64.2,140.2z M74,176.4
		c0,10.8-3,16-10.7,16h-6.1v-43.7h6.1c7.7,0,10.7,5.2,10.7,16V176.4z M102.1,224.5c2.5,0,4.6-2,4.6-4.6c0,0,0,0,0,0v-75.6
		c0-2.5-2-4.6-4.6-4.6c0,0,0,0,0,0c-2.5,0-4.6,2-4.6,4.6c0,0,0,0,0,0v75.6C97.5,222.4,99.6,224.5,102.1,224.5
		C102.1,224.5,102.1,224.5,102.1,224.5z M141.2,225.2c11.4,0,17.5-7.6,17.5-19.7v-23c0-3.4-1.8-5.3-5.2-5.3h-9.5
		c-2.4-0.1-4.5,1.8-4.6,4.2c0,0.1,0,0.2,0,0.2c0,2.4,1.9,4.4,4.3,4.4c0.1,0,0.2,0,0.2,0h6.2V204c0,8.8-3,12.6-9.1,12.6
		c-6.1,0-8.9-3.4-8.9-11.6V161c0-8.5,3.1-12.6,9.1-12.6c6.4,0,8.4,4,8.4,11.3c-0.2,2.4,1.6,4.5,4,4.7c0.1,0,0.3,0,0.4,0
		c2.4,0.1,4.4-1.8,4.4-4.1c0-0.1,0-0.2,0-0.3v-1.7c0-11.6-5.9-18.5-17.3-18.5c-11.8,0-18.2,7.6-18.2,19.7v47
		C123.2,218.6,129.4,225.2,141.2,225.2z"/>
</g>
</svg>
