<?xml version="1.0" encoding="utf-8"?>
<!-- Generator: Adobe Illustrator 26.0.2, SVG Export Plug-In . SVG Version: 6.00 Build 0)  -->
<svg version="1.1" id="レイヤー_1" xmlns="http://www.w3.org/2000/svg" xmlns:xlink="http://www.w3.org/1999/xlink" x="0px"
	 y="0px" viewBox="0 0 1280 54.5" style="enable-background:new 0 0 1280 54.5;" xml:space="preserve">
<style type="text/css">
	.st0{fill:none;stroke:#EBEBEB;stroke-width:6;stroke-linecap:round;}
</style>
<g id="ori" transform="translate(2 3)">
	<g>
		<g id="リピートグリッド_2" transform="translate(0 24)">
			<g transform="translate(-422.5 -161)">
				<line id="線_1" class="st0" x1="408.4" y1="164" x2="408.4" y2="230"/>
			</g>
			<g transform="translate(-396.5 -161)">
				<line id="線_1-2" class="st0" x1="408.4" y1="164" x2="408.4" y2="230"/>
			</g>
			<g transform="translate(-370.5 -161)">
				<line id="線_1-3" class="st0" x1="408.4" y1="164" x2="408.4" y2="230"/>
			</g>
			<g transform="translate(-344.5 -161)">
				<line id="線_1-4" class="st0" x1="408.4" y1="164" x2="408.4" y2="230"/>
			</g>
			<g transform="translate(-318.5 -161)">
				<line id="線_1-5" class="st0" x1="408.4" y1="164" x2="408.4" y2="230"/>
			</g>
			<g transform="translate(-292.5 -161)">
				<line id="線_1-6" class="st0" x1="408.4" y1="164" x2="408.4" y2="230"/>
			</g>
			<g transform="translate(-266.5 -161)">
				<line id="線_1-7" class="st0" x1="408.4" y1="164" x2="408.4" y2="230"/>
			</g>
			<g transform="translate(-240.5 -161)">
				<line id="線_1-8" class="st0" x1="408.4" y1="164" x2="408.4" y2="230"/>
			</g>
			<g transform="translate(-214.5 -161)">
				<line id="線_1-9" class="st0" x1="408.4" y1="164" x2="408.4" y2="230"/>
			</g>
			<g transform="translate(-188.5 -161)">
				<line id="線_1-10" class="st0" x1="408.4" y1="164" x2="408.4" y2="230"/>
			</g>
			<g transform="translate(-162.5 -161)">
				<line id="線_1-11" class="st0" x1="408.4" y1="164" x2="408.4" y2="230"/>
			</g>
			<g transform="translate(-136.5 -161)">
				<line id="線_1-12" class="st0" x1="408.4" y1="164" x2="408.4" y2="230"/>
			</g>
			<g transform="translate(-110.5 -161)">
				<line id="線_1-13" class="st0" x1="408.4" y1="164" x2="408.4" y2="230"/>
			</g>
			<g transform="translate(-84.5 -161)">
				<line id="線_1-14" class="st0" x1="408.4" y1="164" x2="408.4" y2="230"/>
			</g>
			<g transform="translate(-58.5 -161)">
				<line id="線_1-15" class="st0" x1="408.4" y1="164" x2="408.4" y2="230"/>
			</g>
			<g transform="translate(-32.5 -161)">
				<line id="線_1-16" class="st0" x1="408.4" y1="164" x2="408.4" y2="230"/>
			</g>
			<g transform="translate(-6.5 -161)">
				<line id="線_1-17" class="st0" x1="408.4" y1="164" x2="408.4" y2="230"/>
			</g>
			<g transform="translate(19.5 -161)">
				<line id="線_1-18" class="st0" x1="408.4" y1="164" x2="408.4" y2="230"/>
			</g>
			<g transform="translate(45.5 -161)">
				<line id="線_1-19" class="st0" x1="408.4" y1="164" x2="408.4" y2="230"/>
			</g>
			<g transform="translate(71.5 -161)">
				<line id="線_1-20" class="st0" x1="408.4" y1="164" x2="408.4" y2="230"/>
			</g>
			<g transform="translate(97.5 -161)">
				<line id="線_1-21" class="st0" x1="408.4" y1="164" x2="408.4" y2="230"/>
			</g>
			<g transform="translate(123.5 -161)">
				<line id="線_1-22" class="st0" x1="408.4" y1="164" x2="408.4" y2="230"/>
			</g>
			<g transform="translate(149.5 -161)">
				<line id="線_1-23" class="st0" x1="408.4" y1="164" x2="408.4" y2="230"/>
			</g>
			<g transform="translate(175.5 -161)">
				<line id="線_1-24" class="st0" x1="408.4" y1="164" x2="408.4" y2="230"/>
			</g>
			<g transform="translate(201.5 -161)">
				<line id="線_1-25" class="st0" x1="408.4" y1="164" x2="408.4" y2="230"/>
			</g>
			<g transform="translate(227.5 -161)">
				<line id="線_1-26" class="st0" x1="408.4" y1="164" x2="408.4" y2="230"/>
			</g>
			<g transform="translate(253.5 -161)">
				<line id="線_1-27" class="st0" x1="408.4" y1="164" x2="408.4" y2="230"/>
			</g>
			<g transform="translate(279.5 -161)">
				<line id="線_1-28" class="st0" x1="408.4" y1="164" x2="408.4" y2="230"/>
			</g>
			<g transform="translate(305.5 -161)">
				<line id="線_1-29" class="st0" x1="408.4" y1="164" x2="408.4" y2="230"/>
			</g>
			<g transform="translate(331.5 -161)">
				<line id="線_1-30" class="st0" x1="408.4" y1="164" x2="408.4" y2="230"/>
			</g>
			<g transform="translate(357.5 -161)">
				<line id="線_1-31" class="st0" x1="408.4" y1="164" x2="408.4" y2="230"/>
			</g>
			<g transform="translate(383.5 -161)">
				<line id="線_1-32" class="st0" x1="408.4" y1="164" x2="408.4" y2="230"/>
			</g>
			<g transform="translate(409.5 -161)">
				<line id="線_1-33" class="st0" x1="408.4" y1="164" x2="408.4" y2="230"/>
			</g>
			<g transform="translate(435.5 -161)">
				<line id="線_1-34" class="st0" x1="408.4" y1="164" x2="408.4" y2="230"/>
			</g>
			<g transform="translate(461.5 -161)">
				<line id="線_1-35" class="st0" x1="408.4" y1="164" x2="408.4" y2="230"/>
			</g>
			<g transform="translate(487.5 -161)">
				<line id="線_1-36" class="st0" x1="408.4" y1="164" x2="408.4" y2="230"/>
			</g>
			<g transform="translate(513.5 -161)">
				<line id="線_1-37" class="st0" x1="408.4" y1="164" x2="408.4" y2="230"/>
			</g>
			<g transform="translate(539.5 -161)">
				<line id="線_1-38" class="st0" x1="408.4" y1="164" x2="408.4" y2="230"/>
			</g>
			<g transform="translate(565.5 -161)">
				<line id="線_1-39" class="st0" x1="408.4" y1="164" x2="408.4" y2="230"/>
			</g>
			<g transform="translate(591.5 -161)">
				<line id="線_1-40" class="st0" x1="408.4" y1="164" x2="408.4" y2="230"/>
			</g>
			<g transform="translate(617.5 -161)">
				<line id="線_1-41" class="st0" x1="408.4" y1="164" x2="408.4" y2="230"/>
			</g>
			<g transform="translate(643.5 -161)">
				<line id="線_1-42" class="st0" x1="408.4" y1="164" x2="408.4" y2="230"/>
			</g>
			<g transform="translate(669.5 -161)">
				<line id="線_1-43" class="st0" x1="408.4" y1="164" x2="408.4" y2="230"/>
			</g>
			<g transform="translate(695.5 -161)">
				<line id="線_1-44" class="st0" x1="408.4" y1="164" x2="408.4" y2="230"/>
			</g>
			<g transform="translate(721.5 -161)">
				<line id="線_1-45" class="st0" x1="408.4" y1="164" x2="408.4" y2="230"/>
			</g>
			<g transform="translate(747.5 -161)">
				<line id="線_1-46" class="st0" x1="408.4" y1="164" x2="408.4" y2="230"/>
			</g>
			<g transform="translate(773.5 -161)">
				<line id="線_1-47" class="st0" x1="408.4" y1="164" x2="408.4" y2="230"/>
			</g>
			<g transform="translate(799.5 -161)">
				<line id="線_1-48" class="st0" x1="408.4" y1="164" x2="408.4" y2="230"/>
			</g>
			<g transform="translate(825.5 -161)">
				<line id="線_1-49" class="st0" x1="408.4" y1="164" x2="408.4" y2="230"/>
			</g>
			<g transform="translate(851.5 -161)">
				<line id="線_1-50" class="st0" x1="408.4" y1="164" x2="408.4" y2="230"/>
			</g>
		</g>
	</g>
	<line id="線_2" class="st0" x1="-16.1" y1="38.5" x2="1292.1" y2="38.5"/>
	<line id="線_3" class="st0" x1="-16.1" y1="51.5" x2="1292.1" y2="51.5"/>
	<line id="線_4" class="st0" x1="63.9" y1="0" x2="63.9" y2="110"/>
</g>
</svg>
