<?xml version="1.0" encoding="utf-8"?>
<!-- Generator: Adobe Illustrator 26.0.2, SVG Export Plug-In . SVG Version: 6.00 Build 0)  -->
<svg version="1.1" id="レイヤー_1" xmlns="http://www.w3.org/2000/svg" xmlns:xlink="http://www.w3.org/1999/xlink" x="0px"
	 y="0px" viewBox="0 0 375 54.5" style="enable-background:new 0 0 375 54.5;" xml:space="preserve">
<style type="text/css">
	.st0{fill:none;stroke:#EBEBEB;stroke-width:6;stroke-linecap:round;}
</style>
<g id="ori" transform="translate(3 3)">
	<line id="線_1" class="st0" x1="7.9" y1="27" x2="7.9" y2="93"/>
	<line id="線_1-2" class="st0" x1="33.9" y1="27" x2="33.9" y2="93"/>
	<line id="線_1-3" class="st0" x1="59.9" y1="27" x2="59.9" y2="93"/>
	<line id="線_1-4" class="st0" x1="85.9" y1="27" x2="85.9" y2="93"/>
	<line id="線_1-5" class="st0" x1="111.9" y1="27" x2="111.9" y2="93"/>
	<line id="線_1-6" class="st0" x1="137.9" y1="27" x2="137.9" y2="93"/>
	<line id="線_1-7" class="st0" x1="163.9" y1="27" x2="163.9" y2="93"/>
	<line id="線_1-8" class="st0" x1="189.9" y1="27" x2="189.9" y2="93"/>
	<line id="線_1-9" class="st0" x1="215.9" y1="27" x2="215.9" y2="93"/>
	<line id="線_1-10" class="st0" x1="241.9" y1="27" x2="241.9" y2="93"/>
	<line id="線_1-11" class="st0" x1="267.9" y1="27" x2="267.9" y2="93"/>
	<line id="線_1-12" class="st0" x1="293.9" y1="27" x2="293.9" y2="93"/>
	<line id="線_1-13" class="st0" x1="319.9" y1="27" x2="319.9" y2="93"/>
	<line id="線_1-14" class="st0" x1="345.9" y1="27" x2="345.9" y2="93"/>
	<line id="線_1-15" class="st0" x1="371.9" y1="27" x2="371.9" y2="93"/>
	<line id="線_2" class="st0" x1="-5.6" y1="38.5" x2="372.4" y2="38.5"/>
	<line id="線_3" class="st0" x1="-5.6" y1="51.5" x2="372.4" y2="51.5"/>
	<line id="線_4" class="st0" x1="345.9" y1="0" x2="345.9" y2="110"/>
</g>
</svg>
