<?xml version="1.0" encoding="utf-8"?>
<!-- Generator: Adobe Illustrator 26.0.2, SVG Export Plug-In . SVG Version: 6.00 Build 0)  -->
<svg version="1.1" id="レイヤー_1" xmlns="http://www.w3.org/2000/svg" xmlns:xlink="http://www.w3.org/1999/xlink" x="0px"
	 y="0px" viewBox="0 0 183.6 32.3" style="enable-background:new 0 0 183.6 32.3;" xml:space="preserve">
<style type="text/css">
	.st0{fill:#BFBFBF;}
</style>
<path id="パス_26" class="st0" d="M6.8,0C2.3,0,0,2.8,0,7.4v22.9C0,31.3,0.8,32,1.7,32c0,0,0,0,0,0c0.9,0,1.7-0.8,1.7-1.7
	c0,0,0,0,0,0v-9.7h6.7v9.7c0,0.9,0.8,1.7,1.7,1.7c0,0,0,0,0,0c0.9,0,1.7-0.8,1.7-1.7c0,0,0,0,0,0v-23C13.5,2.8,11.2,0,6.8,0z
	 M3.4,17.5V8c0-3.4,1.2-4.7,3.3-4.7s3.3,1.4,3.3,4.7v9.5H3.4z M21.1,32c0.9,0,1.7-0.8,1.7-1.7c0,0,0,0,0,0V8c0-3.4,1.1-4.7,3.2-4.7
	s3.2,1.4,3.2,4.7v22.4c0,0.9,0.8,1.7,1.7,1.7c0,0,0,0,0,0c0.9,0,1.7-0.8,1.7-1.7c0,0,0,0,0,0V7.4C32.7,2.8,30.4,0,26,0
	s-6.7,2.8-6.7,7.4v22.9C19.3,31.3,20.1,32,21.1,32C21.1,32,21.1,32,21.1,32z M40.7,32c0.9,0,1.7-0.8,1.7-1.7c0,0,0,0,0,0V2
	c0-0.9-0.8-1.7-1.7-1.7c0,0,0,0,0,0C39.7,0.3,39,1,39,2c0,0,0,0,0,0v28.4C39,31.3,39.7,32,40.7,32C40.7,32,40.7,32,40.7,32z
	 M50.5,32c0.9,0,1.7-0.8,1.7-1.7c0,0,0,0,0,0V8.1c0-3.2,1.1-4.7,3.1-4.7s3.2,1.5,3.2,4.7v22.3c0,0.9,0.8,1.7,1.7,1.7c0,0,0,0,0,0
	c0.9,0,1.7-0.8,1.7-1.7c0,0,0,0,0,0V8.1c0-3.2,1.1-4.7,3.2-4.7s3.2,1.5,3.2,4.7v22.3c0,0.9,0.8,1.7,1.7,1.7c0,0,0,0,0,0
	c0.9,0,1.7-0.8,1.7-1.7c0,0,0,0,0,0V7.6c0-4.5-2.3-7.4-6.6-7.4c-1.9,0-3.7,0.9-4.9,2.4c-1.1-1.6-2.9-2.5-4.9-2.4
	c-4.2,0-6.6,2.8-6.6,7.4v22.8C48.8,31.3,49.5,32,50.5,32C50.5,32,50.5,32,50.5,32L50.5,32z M84.3,0c-4.4,0-6.8,2.8-6.8,7.4v22.9
	c0,0.9,0.8,1.7,1.7,1.7c0,0,0,0,0,0c0.9,0,1.7-0.8,1.7-1.7c0,0,0,0,0,0v-9.7h6.7v9.7c0,0.9,0.8,1.7,1.7,1.7c0,0,0,0,0,0
	c0.9,0,1.7-0.8,1.7-1.7c0,0,0,0,0,0V7.4C91.1,2.8,88.7,0,84.3,0L84.3,0z M81,17.5V8c0-3.4,1.2-4.7,3.3-4.7s3.3,1.4,3.3,4.7v9.5H81z
	 M99.9,32h6.6c0.9,0.1,1.7-0.6,1.7-1.5c0,0,0-0.1,0-0.1c0-0.9-0.7-1.6-1.6-1.6c0,0-0.1,0-0.1,0h-5.9V2c0-0.9-0.8-1.7-1.7-1.7
	c0,0,0,0,0,0c-0.9,0-1.7,0.8-1.7,1.7c0,0,0,0,0,0v27.3C97.2,31.1,98,32,99.9,32z M128.6,3.7c0.9,0,1.6-0.7,1.7-1.6
	c0-0.9-0.8-1.6-1.7-1.6h-6.9c-1.9,0-2.7,0.8-2.7,2.7v27.2c0,0.9,0.8,1.7,1.7,1.7c0,0,0,0,0,0c0.9,0,1.7-0.8,1.7-1.7c0,0,0,0,0,0
	V16.2h5.6c0.9,0,1.6-0.7,1.7-1.6c0,0,0,0,0,0c0-0.9-0.8-1.6-1.7-1.6c0,0,0,0,0,0h-5.6V3.7L128.6,3.7z M141.4,0
	c-4.4,0-6.8,2.8-6.8,7.4v22.9c0,0.9,0.8,1.7,1.7,1.7c0,0,0,0,0,0c0.9,0,1.7-0.8,1.7-1.7c0,0,0,0,0,0v-9.7h6.7v9.7
	c0,0.9,0.8,1.7,1.7,1.7c0,0,0,0,0,0c0.9,0,1.7-0.8,1.7-1.7c0,0,0,0,0,0V7.4C148.2,2.8,145.8,0,141.4,0z M138.1,17.5V8
	c0-3.4,1.2-4.7,3.3-4.7s3.3,1.4,3.3,4.7v9.5H138.1z M160.5,32.3c4.3,0,6.5-2.8,6.5-7.4v-0.6c0.1-0.9-0.6-1.7-1.5-1.8
	c-0.1,0-0.1,0-0.2,0c-0.9,0-1.7,0.7-1.7,1.6c0,0.1,0,0.1,0,0.2v0.2c0,3.2-1,4.6-3.1,4.6c-2.1,0-3.2-1.4-3.2-4.7V8.2
	c0-3.4,1-4.7,3.1-4.7c2.1,0,3.1,1.4,3.1,4.7v0.1c-0.1,0.9,0.6,1.7,1.5,1.8c0.1,0,0.1,0,0.2,0c0.9,0,1.6-0.7,1.7-1.5c0,0,0-0.1,0-0.1
	V7.7c0-4.5-2.2-7.4-6.5-7.4c-4.2,0-6.5,2.8-6.5,7.4v17.3C153.9,29.5,156.3,32.3,160.5,32.3z M181.9,28.8h-6.3V16.2h5.6
	c0.9,0,1.6-0.7,1.7-1.6c0,0,0,0,0,0c0-0.9-0.8-1.6-1.7-1.6c0,0,0,0,0,0h-5.6V3.6h6.3c0.9,0,1.6-0.7,1.7-1.6c0,0,0,0,0,0
	c0-0.9-0.8-1.6-1.7-1.6c0,0,0,0,0,0H175c-1.9,0-2.7,0.8-2.7,2.7v26.1c0,1.9,0.8,2.7,2.7,2.7h6.9c0.9,0,1.6-0.7,1.7-1.6c0,0,0,0,0,0
	C183.6,29.5,182.8,28.8,181.9,28.8C181.9,28.8,181.9,28.8,181.9,28.8z"/>
</svg>
