<?xml version="1.0" encoding="utf-8"?>
<!-- Generator: Adobe Illustrator 26.0.2, SVG Export Plug-In . SVG Version: 6.00 Build 0)  -->
<svg version="1.1" id="レイヤー_1" xmlns="http://www.w3.org/2000/svg" xmlns:xlink="http://www.w3.org/1999/xlink" x="0px"
	 y="0px" viewBox="0 0 88 112" style="enable-background:new 0 0 88 112;" xml:space="preserve">
<style type="text/css">
	.st0{fill:#DBDBDB;}
	.st1{fill:none;stroke:#DBDBDB;stroke-width:8;stroke-linecap:round;}
</style>
<g id="icon" transform="translate(-594.843 -306)">
	<path id="Microphone" class="st0" d="M638.3,386c-13.2,0-24-10.8-24-24v-32c0-13.3,10.7-24,24-24s24,10.7,24,24v32
		C662.3,375.2,651.6,386,638.3,386z M638.3,314c-8.8,0-16,7.2-16,16v32c0,8.8,7.2,16,16,16s16-7.2,16-16v-32
		C654.3,321.2,647.2,314,638.3,314z M674.3,354c-2.2,0-4,1.8-4,4v4c0,17.7-14.3,32-32,32s-32-14.3-32-32v-4c0-2.2-1.8-4-4-4
		s-4,1.8-4,4v4c0,20.5,15.6,37.7,36,39.8v8.2h-8c-2.2,0-4,1.8-4,4s1.8,4,4,4h24c2.2,0,4-1.8,4-4s-1.8-4-4-4h-8v-8.2
		c20.4-2.1,36-19.3,36-39.8v-4C678.3,355.8,676.6,354,674.3,354z"/>
	<line id="線_5" class="st1" x1="598.8" y1="322.5" x2="678.8" y2="401.5"/>
</g>
</svg>
