<?xml version="1.0" encoding="utf-8"?>
<!-- Generator: Adobe Illustrator 26.0.2, SVG Export Plug-In . SVG Version: 6.00 Build 0)  -->
<svg version="1.1" id="レイヤー_1" xmlns="http://www.w3.org/2000/svg" xmlns:xlink="http://www.w3.org/1999/xlink" x="0px"
	 y="0px" viewBox="0 0 145.8 81.3" style="enable-background:new 0 0 145.8 81.3;" xml:space="preserve">
<style type="text/css">
	.st0{fill:#F48587;}
	.st1{fill:#FFFFFF;}
</style>
<g id="ribon" transform="matrix(0.921, 0.391, -0.391, 0.921, 46.666, -52.682)">
	<path id="パス_16" class="st0" d="M122.2,80.6L135.6,66c-23.5,11.6-47.5,3-70.8-5.3c-25-8.9-49.5-13.8-68.6-1
		c-4.4,2.9-7.5,5.1-9.5,12.9l-1.5,11.8c0.2-0.3,8.6-3.5,12-5.1c2-0.6,14.2-6.8,23.9-7.1c14.8,0,29.8,5.4,44.6,10.6
		c24.5,8.7,49.7,17.8,73.9,2.7L122.2,80.6z"/>
	<g id="グループ_6" transform="translate(21.899 64.521)">
		<path id="パス_15" class="st1" d="M-7.2,1.9c-0.1-0.6,0-1.2,0.2-1.7c0.1-0.4,0.5-0.6,0.9-0.5c0.4,0.1,0.5,0.5,0.4,0.9
			c0,0,0,0,0,0c-0.1,0.4-0.2,0.8-0.1,1.2c0.1,1.1,0.7,1.8,1.6,1.7c0.9-0.1,1.4-0.8,1.3-2.6c0-1.2-0.7-2.4-1.9-2.9l-0.7-0.4
			c-1.2-0.5-2-1.6-2-2.9c-0.2-1.4,0.7-2.7,2.1-3c0.1,0,0.2,0,0.3,0c1.6-0.1,2.7,0.7,2.8,2.5l0,0.1c0,0.4-0.2,0.7-0.5,0.7
			c0,0,0,0-0.1,0c-0.4,0-0.7-0.2-0.7-0.6c0,0,0,0,0-0.1l0-0.1c-0.1-1.1-0.6-1.4-1.3-1.4C-5.6-7-6.2-6.3-6.1-5.6c0,0,0,0.1,0,0.1
			C-6-4.7-5.6-4-4.9-3.8l0.7,0.4c1.6,0.6,2.7,2.2,2.7,4c0.2,2.9-0.9,4-2.6,4.1C-5.6,4.9-7,3.8-7.1,2.3C-7.2,2.2-7.2,2-7.2,1.9z"/>
		<path id="パス_16-2" class="st1" d="M2.6,3.7L2.9-7.2l-1.6,0C1-7.2,0.7-7.5,0.7-7.8c0-0.4,0.3-0.6,0.6-0.7c0,0,0,0,0.1,0
			l4.6,0.1c0.4,0,0.6,0.3,0.7,0.6c0,0.4-0.3,0.6-0.6,0.7c0,0,0,0-0.1,0l-1.6,0L4,3.8c0,0.4-0.4,0.7-0.8,0.6C2.9,4.4,2.6,4.1,2.6,3.7
			L2.6,3.7z"/>
		<path id="パス_17" class="st1" d="M8.5,1.9l1.3-9.3c0-0.4,0.4-0.7,0.7-0.7c0.4,0,0.7,0.4,0.7,0.7c0,0,0,0.1,0,0.1l-1.3,9
			c-0.2,1.4,0.2,2,1.1,2.1s1.4-0.4,1.6-1.7l1.3-9c0-0.4,0.3-0.7,0.7-0.7c0.4,0,0.7,0.3,0.7,0.7c0,0,0,0.1,0,0.1L14,2.6
			c-0.3,1.8-1.4,2.8-3.1,2.6S8.3,3.7,8.5,1.9z"/>
		<path id="パス_18" class="st1" d="M16.7,5l2.5-10.4c0.2-0.7,0.6-1,1.3-0.8l1.3,0.3c1.8,0.4,2.5,1.9,2,4L22.4,4
			c-0.5,2.2-1.8,3.1-3.6,2.6l-1.3-0.3C16.7,6.1,16.5,5.7,16.7,5z M18.9,5.4c1.1,0.3,1.8-0.4,2.2-2l1.3-5.3c0.4-1.6,0.1-2.5-1-2.8
			l-0.9-0.2L18,5.1L18.9,5.4z"/>
		<path id="パス_19" class="st1" d="M24.7,7.5l3.5-11c0.1-0.4,0.6-0.5,0.9-0.4c0.3,0.1,0.5,0.5,0.4,0.8L26,8
			c-0.1,0.4-0.5,0.6-0.8,0.5c-0.4-0.1-0.6-0.5-0.5-0.8C24.7,7.6,24.7,7.6,24.7,7.5L24.7,7.5z"/>
		<path id="パス_20" class="st1" d="M29.8,6.9l2.5-6.6c0.7-1.7,2-2.5,3.6-1.8s2.2,2.1,1.5,3.8l-2.5,6.6c-0.7,1.7-2,2.5-3.6,1.8
			C29.6,10.1,29.1,8.6,29.8,6.9z M33.7,8.2L36.1,2c0.5-1.3,0.2-2-0.6-2.3s-1.5,0-2,1.3l-2.4,6.2c-0.5,1.3-0.2,2,0.6,2.3
			C32.6,9.8,33.2,9.4,33.7,8.2z"/>
		<path id="パス_21" class="st1" d="M40.4,10.9c0.2-0.6,0.5-1.1,0.9-1.5C41.6,9,42,9,42.4,9.2c0.3,0.3,0.3,0.7,0,1c0,0,0,0,0,0
			c-0.3,0.3-0.5,0.7-0.6,1c-0.4,1.1-0.1,1.9,0.8,2.3c0.8,0.3,1.6-0.1,2.2-1.9c0.5-1.1,0.3-2.5-0.5-3.4l-0.5-0.7
			c-0.9-0.9-1.1-2.3-0.6-3.5c0.4-1.4,1.8-2.2,3.1-1.8c0.1,0,0.2,0.1,0.3,0.1c1.5,0.5,2.1,1.7,1.5,3.5L48,6c-0.1,0.3-0.5,0.5-0.8,0.4
			c0,0,0,0-0.1,0c-0.3-0.1-0.5-0.5-0.4-0.8c0,0,0,0,0-0.1l0-0.1c0.4-1.1,0-1.6-0.6-1.8c-0.7-0.2-1.4,0.1-1.7,0.8c0,0,0,0.1,0,0.1
			c-0.3,0.7-0.2,1.5,0.4,2l0.5,0.7c1.2,1.3,1.5,3.2,0.8,4.7c-1,2.7-2.5,3.3-4.1,2.7c-1.5-0.5-2.3-2-1.8-3.5
			C40.3,11.1,40.4,11,40.4,10.9z"/>
		<path id="パス_22" class="st1" d="M55.7,9.2l-0.7,2.3c-0.7,2.1-2.1,2.9-3.8,2.4l-1-0.3l-0.9,2.8c-0.2,0.4-0.6,0.5-0.9,0.4
			c-0.3-0.1-0.5-0.5-0.4-0.8l3.4-10.5c0.1-0.5,0.6-0.9,1.1-0.8c0.1,0,0.2,0.1,0.3,0.1L54,5.1C55.7,5.6,56.4,7.1,55.7,9.2z M54.2,9.1
			c0.5-1.6,0.3-2.5-0.8-2.8L52.6,6l-2.1,6.3l0.9,0.3c1.1,0.4,1.8-0.2,2.3-1.8L54.2,9.1z"/>
		<path id="パス_23" class="st1" d="M56.4,16.3l2-6.8c0.5-1.8,1.8-2.6,3.5-2.1s2.3,1.9,1.8,3.7l-2,6.8c-0.5,1.8-1.8,2.6-3.5,2.1
			S55.9,18.1,56.4,16.3z M60.4,17.2l1.8-6.3c0.4-1.3,0.1-2-0.8-2.2s-1.5,0.2-1.8,1.5l-1.8,6.3c-0.4,1.3-0.1,2,0.8,2.2
			S60,18.6,60.4,17.2z"/>
		<path id="パス_24" class="st1" d="M64.8,18.7l1.7-6.9c0.4-1.8,1.6-2.7,3.4-2.3s2.4,1.8,2,3.6L70.2,20c-0.4,1.8-1.6,2.7-3.4,2.3
			S64.4,20.5,64.8,18.7z M68.9,19.4l1.6-6.4c0.3-1.3,0-2-0.9-2.2s-1.4,0.2-1.8,1.6l-1.6,6.4c-0.3,1.3,0,2,0.9,2.2
			S68.6,20.8,68.9,19.4z"/>
		<path id="パス_25" class="st1" d="M73.1,22.9l1.6-9.2c0.3-1.8,1.4-2.8,3.2-2.5c1.8,0.3,2.5,1.6,2.1,3.4l-1.6,9.2
			c0,0.4-0.4,0.7-0.8,0.6s-0.7-0.4-0.6-0.8c0,0,0-0.1,0-0.1l1.6-9c0.2-1.4-0.1-2-1-2.1s-1.4,0.3-1.6,1.7l-1.6,9
			c0,0.4-0.4,0.7-0.8,0.6c-0.4,0-0.7-0.4-0.6-0.8C73.1,22.9,73.1,22.9,73.1,22.9L73.1,22.9z"/>
	</g>
</g>
</svg>
